<svg version="1.1" id="Layer_1" xmlns="http://www.w3.org/2000/svg" xmlns:xlink="http://www.w3.org/1999/xlink" x="0px" y="0px"
 	 width="220" height="52" viewBox="0 0 700 163" enable-background="new 0 0 700 163" xml:space="preserve">
<path fill="#010102" opacity="1.000000" stroke="none" 
	d="
M465.000000,164.000000 
	C310.000031,164.000000 155.500031,164.000000 1.000041,164.000000 
	C1.000028,109.666695 1.000028,55.333382 1.000014,1.000056 
	C234.333267,1.000037 467.666534,1.000037 700.999878,1.000019 
	C700.999878,55.333271 700.999878,109.666542 700.999939,163.999908 
	C622.500000,164.000000 544.000000,164.000000 465.000000,164.000000 
M618.671936,41.693806 
	C618.514404,41.420296 618.298584,41.361958 617.470825,41.267059 
	C617.281311,41.194965 617.091858,41.122875 616.649780,40.420372 
	C612.743408,38.325935 608.837097,36.231499 604.932861,34.056995 
	C604.932861,34.056995 604.852783,34.058868 604.738342,33.657001 
	C604.557495,33.374157 604.313721,33.300934 603.467346,33.224121 
	C603.283508,33.163982 603.099670,33.103840 602.660461,32.418663 
	C599.416626,30.659552 596.172729,28.900440 592.926636,27.059484 
	C592.926636,27.059484 592.844788,27.062140 592.729614,26.663561 
	C592.550964,26.385399 592.308716,26.308891 591.468628,26.214556 
	C591.284668,26.157852 591.100708,26.101147 590.645569,25.474257 
	C589.733582,25.060785 588.821655,24.647314 587.532532,23.713232 
	C586.933350,23.499956 586.334167,23.286680 585.667603,22.700029 
	C585.507019,22.438324 585.287048,22.371340 584.442627,22.235577 
	C584.243958,22.174347 584.045349,22.113119 583.734192,21.649441 
	C583.552612,21.367189 583.308411,21.294138 582.449219,21.216307 
	C582.260803,21.157288 582.072327,21.098270 581.742432,20.597324 
	C581.550720,20.307222 581.282471,20.184935 580.887207,20.124912 
	C580.887207,20.124912 580.770508,20.116077 580.557129,19.591843 
	C580.024658,19.453537 579.492188,19.315231 578.932495,19.077587 
	C578.932495,19.077587 578.830566,19.062714 578.738159,18.642952 
	C578.563599,18.350199 578.315247,18.259356 577.490540,18.174181 
	C577.318848,18.120859 577.147095,18.067537 576.693237,17.439585 
	C575.773376,17.062668 574.853455,16.685749 573.484558,16.135103 
	C573.484558,16.135103 573.026672,15.986503 572.864868,15.294574 
	C571.619202,14.311085 570.434082,13.236316 569.116272,12.361507 
	C565.392822,9.889721 559.570862,10.722656 556.116943,14.146888 
	C556.116943,14.146888 556.072205,14.261648 555.645386,14.324430 
	C555.354980,14.494386 555.252075,14.742262 555.196899,15.155783 
	C555.196899,15.155783 555.152344,15.314692 554.446899,15.480547 
	C553.679688,18.078463 552.258789,20.672966 552.245178,23.274826 
	C552.088745,53.242218 552.144897,83.210724 552.146667,113.178932 
	C552.147339,124.500252 552.096191,135.821991 552.180664,147.142715 
	C552.224976,153.078735 557.055237,158.273148 562.380981,157.714050 
	C568.386536,157.083557 573.677368,154.546829 578.413696,149.742096 
	C578.616760,149.664719 578.819885,149.587326 579.399658,149.589691 
	C579.675293,149.466324 579.789795,149.255280 580.421814,148.678177 
	C580.639038,148.565887 580.856201,148.453613 581.354736,148.479889 
	C581.602722,148.377213 581.668701,148.204437 582.099487,147.724167 
	C582.387939,147.456940 582.676392,147.189697 583.626465,146.886993 
	C584.687134,146.221527 585.747864,145.556076 586.901245,144.886642 
	C586.901245,144.886642 586.906433,144.793991 587.610657,144.803528 
	C589.638916,143.490509 591.667114,142.177490 594.374634,140.688965 
	C594.593079,140.605377 594.811462,140.521790 595.374756,140.540756 
	C595.643677,140.419006 595.730042,140.218323 595.799744,139.846115 
	C595.799744,139.846115 595.883423,139.675613 596.600098,139.754547 
	C601.341248,136.807678 606.082336,133.860825 611.433960,130.698410 
	C611.636047,130.622620 611.838074,130.546844 612.413513,130.575974 
	C612.687744,130.459320 612.818787,130.251938 613.390686,129.678040 
	C613.926147,129.316971 614.461548,128.955887 615.419495,128.635193 
	C615.705322,128.498230 615.854065,128.271286 616.451965,127.757248 
	C616.638977,127.670258 616.825928,127.583267 617.383972,127.551735 
	C617.648315,127.428551 617.761475,127.222198 618.372925,126.751122 
	C618.585022,126.676598 618.797180,126.602074 619.415344,126.598206 
	C619.698364,126.468369 619.840393,126.247620 619.924377,125.939743 
	C619.924377,125.939743 619.926880,125.856705 620.649841,125.844185 
	C624.382446,123.534187 628.115112,121.224190 631.928162,118.924835 
	C631.928162,118.924835 631.929626,118.843704 632.571899,118.863052 
	C633.348083,118.224434 634.124207,117.585808 635.458435,116.782890 
	C635.638733,116.711479 635.819031,116.640076 636.406799,116.610634 
	C636.686646,116.476799 636.822266,116.254715 637.421753,115.739815 
	C637.619873,115.659218 637.817993,115.578621 638.406189,115.572510 
	C638.682251,115.447105 638.814331,115.232780 638.899414,114.922096 
	C638.899414,114.922096 638.918213,114.826523 639.626038,114.823570 
	C641.682556,113.512344 643.739075,112.201126 645.893127,110.889717 
	C645.893127,110.889717 645.910461,110.793701 646.592651,110.817070 
	C648.001404,109.849182 649.410217,108.881287 651.429260,107.719963 
	C651.628052,107.642204 651.826782,107.564445 652.399780,107.572319 
	C652.672668,107.451591 652.792908,107.242729 653.251160,106.729607 
	C653.494568,106.472824 653.737976,106.216042 654.640503,105.925072 
	C655.707886,105.251968 656.775208,104.578865 657.918640,103.922195 
	C657.918640,103.922195 657.924438,103.844658 658.638428,103.808342 
	C661.350647,102.185822 664.062805,100.563293 667.363708,98.656448 
	C667.909241,98.295715 668.454773,97.934975 669.411865,97.617508 
	C669.692993,97.484261 669.835022,97.261986 670.431458,96.767593 
	C670.622925,96.689003 670.814453,96.610405 671.400330,96.583961 
	C671.675903,96.452515 671.800537,96.234573 671.883911,95.909134 
	C671.883911,95.909134 671.913574,95.801598 672.549255,95.821022 
	C673.330872,95.195877 674.112549,94.570724 675.411011,93.777924 
	C675.577332,93.706261 675.743713,93.634590 676.594299,93.713570 
	C681.367737,91.629112 682.429138,87.638458 681.713440,83.040131 
	C680.837708,77.412994 678.409546,72.969345 671.400696,72.211685 
	C671.224182,72.165527 671.047668,72.119370 670.547974,71.491516 
	C667.677307,70.031563 664.806641,68.571609 661.956726,67.035301 
	C661.956726,67.035301 661.878967,67.049950 661.746460,66.601341 
	C661.558838,66.307060 661.291321,66.176323 660.901794,66.110359 
	C660.901794,66.110359 660.794495,66.107414 660.497009,65.523125 
	C655.972717,63.068100 651.448364,60.613075 646.909668,58.067745 
	C646.909668,58.067745 646.818237,58.065300 646.719055,57.677849 
	C646.540588,57.400360 646.308228,57.343502 645.434570,57.266850 
	C645.235291,57.195702 645.036072,57.124557 644.736023,56.645679 
	C644.554626,56.357571 644.309998,56.286148 643.447205,56.223686 
	C643.259338,56.162682 643.071472,56.101677 642.765259,55.615246 
	C642.578735,55.318718 642.321350,55.231544 641.484863,55.174953 
	C641.313293,55.122086 641.141663,55.069214 640.697510,54.404415 
	C639.116394,53.628521 637.535339,52.852627 635.987915,52.007793 
	C635.987915,52.007793 635.917786,52.039036 635.771545,51.625271 
	C635.579895,51.336090 635.322327,51.254173 634.463074,51.189037 
	C634.281128,51.135971 634.099121,51.082901 633.751953,50.599419 
	C633.561279,50.316742 633.296082,50.189556 632.919250,50.107964 
	C632.919250,50.107964 632.805908,50.083309 632.582825,49.485989 
	C631.017822,48.799927 629.452820,48.113861 627.331848,47.056488 
	C626.762756,46.718899 626.193665,46.381313 625.612122,45.705601 
	C625.472839,45.462944 625.278870,45.405930 624.467896,45.241409 
	C624.266724,45.176365 624.065613,45.111317 623.745911,44.639118 
	C623.560913,44.352955 623.312866,44.279465 622.442871,44.214626 
	C622.253052,44.157440 622.063171,44.100250 621.752502,43.626915 
	C621.568909,43.338451 621.316040,43.251484 620.460815,43.174847 
	C620.278198,43.126915 620.095642,43.078987 619.742859,42.607540 
	C619.547485,42.327431 619.281006,42.213470 618.861145,42.126232 
	C618.861145,42.126232 618.709595,42.069233 618.671936,41.693806 
M278.750946,83.153801 
	C279.099945,90.450439 279.661591,97.744453 279.751587,105.044289 
	C279.915039,118.302223 279.797943,131.563614 279.797943,144.978485 
	C287.374878,144.978485 294.295410,144.978485 301.793854,144.978485 
	C301.793854,135.915512 301.791809,127.123680 301.794403,118.331841 
	C301.797211,108.834946 301.632050,99.333954 301.858124,89.842316 
	C302.084290,80.346039 309.284332,73.041298 318.088989,72.910950 
	C326.502289,72.786377 332.250366,78.906982 333.020813,88.941139 
	C333.198883,91.260452 333.062134,93.604294 333.062317,95.936852 
	C333.063721,112.207367 333.063080,128.477875 333.063080,144.926407 
	C340.376801,144.926407 347.419403,144.926407 354.622467,144.926407 
	C354.622467,123.156715 355.154053,101.681015 354.413116,80.249313 
	C354.001678,68.347916 347.407990,59.320293 335.652100,55.661579 
	C323.699768,51.941730 312.578033,54.177780 303.206573,62.922276 
	C301.182159,64.811264 299.454559,67.018387 297.440430,69.244560 
	C292.700836,58.864559 284.221344,54.703518 273.712585,54.194237 
	C263.303589,53.689793 254.857895,57.980350 247.636169,67.418648 
	C247.636169,62.740299 247.636169,59.686943 247.636169,56.473610 
	C240.581573,56.473610 233.999588,56.473610 227.128235,56.473610 
	C227.128235,86.126030 227.128235,115.510628 227.128235,144.838226 
	C234.437241,144.838226 241.471909,144.838226 248.825424,144.838226 
	C248.825424,141.615982 248.821091,138.804489 248.826172,135.993027 
	C248.853836,120.664871 248.754166,105.334930 248.964600,90.009262 
	C249.079773,81.621559 254.355804,75.054497 261.614197,73.447914 
	C269.078827,71.795677 274.869507,74.867180 278.750946,83.153801 
M152.363693,102.495529 
	C152.363693,87.216881 152.363693,71.938232 152.363693,56.449310 
	C144.929565,56.449310 138.021637,56.449310 130.926254,56.449310 
	C130.780411,57.467030 130.567444,58.266296 130.565689,59.066029 
	C130.524673,77.718056 130.367630,96.371780 130.589386,115.020935 
	C130.639954,119.275055 131.483002,123.695564 132.867157,127.728600 
	C140.167572,148.999939 168.061813,154.562378 183.233704,137.910873 
	C184.686523,136.316360 186.058823,134.648438 188.229889,132.132156 
	C188.229889,137.198303 188.229889,140.964874 188.229889,144.961517 
	C194.990646,144.961517 201.387650,144.961517 207.830658,144.961517 
	C207.830658,115.332603 207.830658,85.987961 207.830658,56.597450 
	C200.374420,56.597450 193.313477,56.597450 186.347778,56.597450 
	C186.171677,57.268383 186.014511,57.588760 186.013916,57.909428 
	C185.983521,74.063393 186.010666,90.217667 185.908096,106.371117 
	C185.889221,109.342247 185.732941,112.411407 184.978699,115.260208 
	C182.817413,123.423363 174.504120,128.937866 166.400391,127.933907 
	C157.724899,126.859116 152.893539,121.415222 152.387421,111.984589 
	C152.235931,109.161690 152.363174,106.323830 152.363693,102.495529 
M487.678986,136.825333 
	C480.246735,125.382454 472.729950,113.992455 465.493958,102.426773 
	C464.632751,101.050255 464.556152,98.258331 465.386932,96.899910 
	C470.245483,88.955879 475.483429,81.243927 480.591766,73.452644 
	C484.188324,67.967148 487.782410,62.480038 491.868958,56.243866 
	C484.501465,56.243866 478.230652,56.418179 471.976898,56.167030 
	C469.047089,56.049377 467.567749,57.161900 466.122070,59.572758 
	C461.296326,67.620567 456.200989,75.506721 450.844757,84.034668 
	C445.456421,75.456299 440.500916,67.422043 435.353363,59.512779 
	C434.481720,58.173447 432.820374,56.522972 431.461304,56.464249 
	C424.390442,56.158749 417.299316,56.321918 409.132935,56.321918 
	C418.851807,71.191566 428.080414,85.311111 437.473236,99.681885 
	C427.841583,114.541367 418.207886,129.404037 407.928253,145.263214 
	C415.363220,145.263214 421.630341,145.540039 427.847351,145.103790 
	C429.855774,144.962860 432.421783,143.408783 433.553589,141.713791 
	C439.223541,133.222473 444.502167,124.469879 450.056305,115.588478 
	C455.760651,124.545784 461.213531,133.225128 466.825043,141.800690 
	C467.724762,143.175674 469.291931,144.999008 470.621582,145.059708 
	C477.708618,145.383255 484.818237,145.212082 492.975159,145.212082 
	C490.996582,142.075760 489.535522,139.759796 487.678986,136.825333 
M64.974556,35.568890 
	C64.974556,32.825031 64.974556,30.081169 64.974556,27.474197 
	C56.911278,27.474197 49.675659,27.474197 42.447586,27.474197 
	C42.447586,66.876205 42.447586,105.915024 42.447586,144.933777 
	C68.206299,144.933777 93.600456,144.933777 119.117821,144.933777 
	C119.117821,138.206039 119.117821,131.825577 119.117821,125.146957 
	C100.943245,125.146957 83.179794,125.146957 64.878677,125.146957 
	C64.878677,95.409294 64.878677,65.979347 64.974556,35.568890 
M374.104370,83.498405 
	C374.104370,103.917915 374.104370,124.337433 374.104370,144.764923 
	C381.548645,144.764923 388.564423,144.764923 395.603546,144.764923 
	C395.603546,115.113434 395.603546,85.894257 395.603546,56.639755 
	C388.265717,56.639755 381.238800,56.639755 374.104340,56.639755 
	C374.104340,65.545593 374.104340,74.021767 374.104370,83.498405 
z"/>
<path fill="#F6F6F8" opacity="1.000000" stroke="none" 
	d="
M278.618347,82.775360 
	C274.869507,74.867180 269.078827,71.795677 261.614197,73.447914 
	C254.355804,75.054497 249.079773,81.621559 248.964600,90.009262 
	C248.754166,105.334930 248.853836,120.664871 248.826172,135.993027 
	C248.821091,138.804489 248.825424,141.615982 248.825424,144.838226 
	C241.471909,144.838226 234.437241,144.838226 227.128235,144.838226 
	C227.128235,115.510628 227.128235,86.126030 227.128235,56.473610 
	C233.999588,56.473610 240.581573,56.473610 247.636169,56.473610 
	C247.636169,59.686943 247.636169,62.740299 247.636169,67.418648 
	C254.857895,57.980350 263.303589,53.689793 273.712585,54.194237 
	C284.221344,54.703518 292.700836,58.864559 297.440430,69.244560 
	C299.454559,67.018387 301.182159,64.811264 303.206573,62.922276 
	C312.578033,54.177780 323.699768,51.941730 335.652100,55.661579 
	C347.407990,59.320293 354.001678,68.347916 354.413116,80.249313 
	C355.154053,101.681015 354.622467,123.156715 354.622467,144.926407 
	C347.419403,144.926407 340.376801,144.926407 333.063080,144.926407 
	C333.063080,128.477875 333.063721,112.207367 333.062317,95.936852 
	C333.062134,93.604294 333.198883,91.260452 333.020813,88.941139 
	C332.250366,78.906982 326.502289,72.786377 318.088989,72.910950 
	C309.284332,73.041298 302.084290,80.346039 301.858124,89.842316 
	C301.632050,99.333954 301.797211,108.834946 301.794403,118.331841 
	C301.791809,127.123680 301.793854,135.915512 301.793854,144.978485 
	C294.295410,144.978485 287.374878,144.978485 279.797943,144.978485 
	C279.797943,131.563614 279.915039,118.302223 279.751587,105.044289 
	C279.661591,97.744453 279.099945,90.450439 278.618347,82.775360 
z"/>
<path fill="#5F3A8E" opacity="1.000000" stroke="none" 
	d="
M621.873230,44.043064 
	C622.063171,44.100250 622.253052,44.157440 622.834351,44.459190 
	C623.407776,44.875652 623.620667,44.989826 623.864563,45.046272 
	C624.065613,45.111317 624.266724,45.176365 624.823242,45.497147 
	C625.302612,45.887550 625.451294,45.984497 625.624573,46.043724 
	C626.193665,46.381313 626.762756,46.718899 627.660522,47.590103 
	C629.594788,48.776920 631.200317,49.430119 632.805908,50.083313 
	C632.805908,50.083309 632.919250,50.107964 633.051453,50.346012 
	C633.382751,50.807270 633.627258,50.955860 633.917175,51.029831 
	C634.099121,51.082901 634.281128,51.135971 634.849731,51.435844 
	C635.430908,51.863930 635.658020,51.982723 635.917786,52.039036 
	C635.917786,52.039036 635.987915,52.007793 635.997192,52.423733 
	C637.660950,53.565228 639.315552,54.290779 640.970093,55.016338 
	C641.141663,55.069214 641.313293,55.122086 641.852539,55.418671 
	C642.406433,55.849628 642.627563,55.975719 642.883545,56.040668 
	C643.071472,56.101677 643.259338,56.162682 643.834167,56.465675 
	C644.397888,56.873535 644.603149,56.988781 644.836792,57.053410 
	C645.036072,57.124557 645.235291,57.195702 645.834717,57.511650 
	C646.405151,57.905056 646.599609,58.008007 646.818237,58.065300 
	C646.818237,58.065300 646.909668,58.067745 646.983948,58.449177 
	C651.636963,61.256207 656.215759,63.681805 660.794495,66.107407 
	C660.794495,66.107414 660.901794,66.110359 661.036621,66.341911 
	C661.360962,66.800964 661.596863,66.959793 661.878967,67.049950 
	C661.878967,67.049950 661.956726,67.035301 661.969360,67.423767 
	C664.221191,70.742607 665.766418,75.120880 670.871216,72.073212 
	C671.047668,72.119370 671.224182,72.165527 671.735168,72.616486 
	C673.514526,74.307228 674.977051,75.573952 676.400879,76.882721 
	C680.434387,80.590302 681.309937,85.437141 678.673767,89.570168 
	C677.804016,90.933914 676.834167,92.233826 675.910095,93.562927 
	C675.743713,93.634590 675.577332,93.706261 674.820068,93.872879 
	C673.457214,94.579086 672.685425,95.190338 671.913574,95.801598 
	C671.913574,95.801598 671.883911,95.909134 671.678162,95.987900 
	C671.276428,96.181076 671.120911,96.336128 671.005920,96.531815 
	C670.814453,96.610405 670.622925,96.689003 669.968628,96.923965 
	C669.291077,97.197716 669.122620,97.362350 669.000305,97.574234 
	C668.454773,97.934975 667.909241,98.295715 666.703857,98.797821 
	C663.337463,100.574341 660.630981,102.209496 657.924438,103.844650 
	C657.924438,103.844658 657.918640,103.922195 657.522095,103.929382 
	C656.077515,104.610809 655.029480,105.285034 653.981445,105.959259 
	C653.737976,106.216042 653.494568,106.472824 652.862183,106.896484 
	C652.285522,107.163765 652.136292,107.304878 652.025513,107.486694 
	C651.826782,107.564445 651.628052,107.642204 650.778442,107.834457 
	C648.721863,108.897202 647.316162,109.845451 645.910461,110.793701 
	C645.910461,110.793701 645.893127,110.889717 645.489624,110.914520 
	C643.030212,112.235069 640.974182,113.530800 638.918213,114.826523 
	C638.918213,114.826523 638.899414,114.922096 638.698608,114.988907 
	C638.298889,115.161438 638.138367,115.308868 638.016174,115.498016 
	C637.817993,115.578621 637.619873,115.659218 636.956421,115.909760 
	C636.282776,116.198097 636.118835,116.361092 635.999268,116.568680 
	C635.819031,116.640076 635.638733,116.711479 634.843628,116.872513 
	C633.462402,117.589317 632.696045,118.216515 631.929626,118.843704 
	C631.929626,118.843704 631.928162,118.924835 631.515137,118.933479 
	C627.377014,121.246979 623.651978,123.551834 619.926880,125.856697 
	C619.926880,125.856705 619.924377,125.939743 619.721191,126.001633 
	C619.307556,126.173439 619.138000,126.328117 619.009277,126.527557 
	C618.797180,126.602074 618.585022,126.676598 617.909058,126.906876 
	C617.264465,127.170593 617.120300,127.315147 617.012817,127.496277 
	C616.825928,127.583267 616.638977,127.670258 615.986450,127.921638 
	C615.298340,128.206284 615.123718,128.375885 614.997009,128.594818 
	C614.461548,128.955887 613.926147,129.316971 612.949707,129.868530 
	C612.313049,130.151459 612.156860,130.288788 612.040161,130.471054 
	C611.838074,130.546844 611.636047,130.622620 610.770569,130.819427 
	C608.069824,131.935730 606.032471,132.931015 603.997681,133.543304 
	C606.701172,129.763474 609.242554,126.221581 612.155579,123.017570 
	C614.326416,120.629921 616.977966,118.679344 619.415405,116.534103 
	C618.746277,116.249580 618.077148,115.965050 617.408081,115.680527 
	C617.287720,113.418503 617.140503,111.157471 617.057190,108.894081 
	C617.007202,107.535492 617.369934,105.103317 617.008118,104.997520 
	C615.427185,104.535286 613.182495,104.055939 612.024536,104.836906 
	C607.416443,107.944763 600.706482,107.726631 597.857788,113.706039 
	C597.643555,114.155769 595.986389,113.918114 594.807312,113.765610 
	C593.743103,114.354050 592.871521,115.176872 591.549133,115.999794 
	C587.398865,115.666595 583.699402,115.333298 579.952698,114.628372 
	C578.936951,110.837830 577.968506,107.418907 577.000000,103.580177 
	C577.677795,100.771179 578.355652,98.381981 579.270264,96.180389 
	C579.966797,97.237274 580.426514,98.106567 580.901733,99.427780 
	C580.942078,102.593002 580.966919,105.306313 580.985596,108.407814 
	C582.002563,109.854607 583.025757,110.913193 584.446472,112.010567 
	C585.908447,112.077774 586.972900,112.106194 588.199158,112.334503 
	C588.929260,112.136330 589.497559,111.738258 590.355957,111.167564 
	C591.819824,110.347137 592.993591,109.699341 594.332397,108.982162 
	C594.709351,108.790840 594.875122,108.623268 595.264771,108.300179 
	C595.721985,108.138206 595.909241,108.086128 596.277832,107.967972 
	C596.692078,107.775894 596.871948,107.596764 597.252686,107.262375 
	C597.682190,107.110886 597.857788,107.061539 598.246094,106.929230 
	C598.728760,106.684425 598.928711,106.460258 599.066467,106.123970 
	C599.074036,106.074173 599.174438,106.066017 599.335205,105.991211 
	C599.704041,105.793846 599.869568,105.628738 600.270874,105.323105 
	C600.737488,105.169113 600.925964,105.113068 601.446289,105.047920 
	C602.550781,104.432953 603.323486,103.827087 604.119629,103.161804 
	C604.143188,103.102386 604.269409,103.081871 604.393921,103.026596 
	C604.678284,102.885010 604.817566,102.773087 605.247864,102.480080 
	C605.773865,102.235512 605.988220,102.146431 606.360901,101.981606 
	C606.722412,101.779808 606.881775,101.612068 607.283813,101.307175 
	C607.766357,101.166489 607.962524,101.121262 608.486450,101.061241 
	C609.573303,100.435211 610.332275,99.823982 611.117920,99.155243 
	C611.144592,99.097725 611.270386,99.081833 611.391479,99.030731 
	C611.667908,98.899239 611.804077,98.794106 612.243835,98.497086 
	C612.792114,98.241417 613.017700,98.152893 613.387207,97.997902 
	C613.716736,97.822708 613.866760,97.677238 614.284363,97.370743 
	C614.797363,97.185547 615.007202,97.124641 615.360901,97.005920 
	C615.690247,96.850746 615.843628,96.716736 616.250977,96.411034 
	C616.735779,96.205711 616.934509,96.135399 617.487305,96.051422 
	C619.240601,95.049133 620.639771,94.060532 622.025513,93.036644 
	C622.011963,93.001358 622.072083,93.047089 622.410583,93.040985 
	C623.525391,92.412224 624.301758,91.789558 625.082886,91.118729 
	C625.087708,91.070557 625.184387,91.065323 625.333008,91.006538 
	C625.674805,90.850967 625.834229,90.714722 626.260071,90.417641 
	C626.763733,90.224571 626.967346,90.152870 627.528992,90.067642 
	C628.933105,89.385017 629.979187,88.715927 631.012695,88.023224 
	C631.000122,87.999611 631.049316,88.020760 631.262085,87.923172 
	C631.740906,87.640831 631.926270,87.395195 632.024536,87.052132 
	C632.018066,87.015579 632.086975,87.043144 632.360535,87.007965 
	C632.837280,86.337097 633.040466,85.701408 633.229370,84.688744 
	C633.151672,83.813622 633.088318,83.315460 632.934814,82.636795 
	C632.681946,82.230217 632.468445,82.073090 632.137451,81.956924 
	C632.070740,81.928978 632.015320,81.795341 631.924316,81.616463 
	C631.667419,81.216064 631.453857,81.059906 630.902222,80.834702 
	C630.075256,80.352394 629.538574,80.004478 628.889343,79.499802 
	C628.591675,79.153343 628.370605,79.026047 627.830505,78.878494 
	C627.362793,78.728058 627.178223,78.660278 626.883850,78.449173 
	C626.596130,78.134544 626.387878,78.016853 625.806091,77.874176 
	C624.633606,77.364777 623.804443,76.933983 622.873291,76.379089 
	C622.609070,76.108391 622.423218,76.003677 621.896484,75.871811 
	C621.087097,75.435501 620.595032,75.068222 620.006836,74.389351 
	C616.215759,72.110352 612.520813,70.142937 608.920654,68.111664 
	C609.015442,68.047798 608.831604,68.188057 608.839722,67.822601 
	C602.063660,63.538429 595.316650,59.551708 588.443420,55.795834 
	C587.673035,55.374859 586.187805,56.261894 584.734497,56.659103 
	C584.230164,56.839413 584.025452,56.902981 583.642212,57.050312 
	C583.240234,57.284012 583.069580,57.480026 582.905029,57.797173 
	C582.858154,57.872227 582.692078,57.933437 582.532471,58.044899 
	C582.175049,58.333229 582.027710,58.545177 581.925903,58.844498 
	C581.921021,58.896778 581.817749,58.915688 581.473877,59.020920 
	C580.635742,61.876225 580.094666,64.618988 579.663696,67.378937 
	C579.372681,69.242065 579.236877,71.129425 578.747681,72.735657 
	C577.971924,67.336288 577.332275,62.215790 577.034973,57.075489 
	C576.793274,52.895920 574.512390,50.161266 570.221069,50.038609 
	C566.373718,49.928646 564.912781,48.030510 564.975891,44.378036 
	C565.030396,41.227821 565.628357,37.802116 564.625732,34.981735 
	C562.889465,30.097322 561.773865,25.882557 566.256592,21.845461 
	C566.981812,21.192322 566.825317,18.048857 566.396912,17.890099 
	C564.628906,17.234907 562.582947,17.052895 560.673584,17.187073 
	C559.866089,17.243814 558.531860,18.467234 558.476440,19.235399 
	C557.865967,27.690536 557.545776,36.166779 556.920227,44.620510 
	C556.809265,46.119675 555.658447,47.541889 554.983582,48.531021 
	C555.037048,37.146500 555.094666,26.230597 555.152344,15.314692 
	C555.152344,15.314692 555.196899,15.155783 555.416870,15.005970 
	C555.825806,14.690078 555.970886,14.491908 556.072205,14.261648 
	C556.072205,14.261648 556.116943,14.146888 556.570435,14.093861 
	C562.785156,11.177352 567.803650,14.422955 573.026672,15.986503 
	C573.026672,15.986503 573.484558,16.135103 573.802368,16.530895 
	C575.071960,17.289198 576.023682,17.651707 576.975403,18.014214 
	C577.147095,18.067537 577.318848,18.120859 577.848389,18.422943 
	C578.381165,18.854879 578.589294,18.985214 578.830566,19.062714 
	C578.830566,19.062714 578.932495,19.077587 579.110352,19.336327 
	C579.782349,19.768736 580.276428,19.942404 580.770508,20.116076 
	C580.770508,20.116077 580.887207,20.124912 581.029663,20.354877 
	C581.365234,20.805496 581.602478,20.956966 581.883850,21.039251 
	C582.072327,21.098270 582.260803,21.157288 582.835693,21.463039 
	C583.400391,21.878454 583.608582,21.992495 583.846680,22.051893 
	C584.045349,22.113119 584.243958,22.174347 584.821594,22.490055 
	C585.353882,22.894537 585.532043,23.004162 585.734985,23.073406 
	C586.334167,23.286680 586.933350,23.499956 587.810181,24.286625 
	C589.030823,25.254827 589.973816,25.649637 590.916748,26.044445 
	C591.100708,26.101147 591.284668,26.157852 591.845703,26.464100 
	C592.401367,26.880987 592.608704,26.997152 592.844788,27.062140 
	C592.844788,27.062140 592.926636,27.059484 593.007507,27.428459 
	C596.364197,29.546188 599.640015,31.294943 602.915833,33.043701 
	C603.099670,33.103840 603.283508,33.163982 603.848145,33.469410 
	C604.409119,33.879780 604.617065,33.994503 604.852783,34.058868 
	C604.852783,34.058868 604.932861,34.056995 605.011230,34.427902 
	C607.706726,39.377872 612.503662,39.838139 616.902405,41.050781 
	C617.091858,41.122875 617.281311,41.194965 617.838013,41.509575 
	C618.350891,41.893421 618.519043,41.999134 618.709595,42.069233 
	C618.709595,42.069233 618.861145,42.126232 619.023438,42.368687 
	C619.386047,42.824078 619.628540,42.964050 619.913147,43.031059 
	C620.095642,43.078987 620.278198,43.126915 620.839111,43.422958 
	C621.401306,43.856308 621.619873,43.980305 621.873230,44.043064 
z"/>
<path fill="#F5F6F8" opacity="1.000000" stroke="none" 
	d="
M152.363205,102.994179 
	C152.363174,106.323830 152.235931,109.161690 152.387421,111.984589 
	C152.893539,121.415222 157.724899,126.859116 166.400391,127.933907 
	C174.504120,128.937866 182.817413,123.423363 184.978699,115.260208 
	C185.732941,112.411407 185.889221,109.342247 185.908096,106.371117 
	C186.010666,90.217667 185.983521,74.063393 186.013916,57.909428 
	C186.014511,57.588760 186.171677,57.268383 186.347778,56.597450 
	C193.313477,56.597450 200.374420,56.597450 207.830658,56.597450 
	C207.830658,85.987961 207.830658,115.332603 207.830658,144.961517 
	C201.387650,144.961517 194.990646,144.961517 188.229889,144.961517 
	C188.229889,140.964874 188.229889,137.198303 188.229889,132.132156 
	C186.058823,134.648438 184.686523,136.316360 183.233704,137.910873 
	C168.061813,154.562378 140.167572,148.999939 132.867157,127.728600 
	C131.483002,123.695564 130.639954,119.275055 130.589386,115.020935 
	C130.367630,96.371780 130.524673,77.718056 130.565689,59.066029 
	C130.567444,58.266296 130.780411,57.467030 130.926254,56.449310 
	C138.021637,56.449310 144.929565,56.449310 152.363693,56.449310 
	C152.363693,71.938232 152.363693,87.216881 152.363205,102.994179 
z"/>
<path fill="#F4F4F7" opacity="1.000000" stroke="none" 
	d="
M487.876740,137.134583 
	C489.535522,139.759796 490.996582,142.075760 492.975159,145.212082 
	C484.818237,145.212082 477.708618,145.383255 470.621582,145.059708 
	C469.291931,144.999008 467.724762,143.175674 466.825043,141.800690 
	C461.213531,133.225128 455.760651,124.545784 450.056305,115.588478 
	C444.502167,124.469879 439.223541,133.222473 433.553589,141.713791 
	C432.421783,143.408783 429.855774,144.962860 427.847351,145.103790 
	C421.630341,145.540039 415.363220,145.263214 407.928253,145.263214 
	C418.207886,129.404037 427.841583,114.541367 437.473236,99.681885 
	C428.080414,85.311111 418.851807,71.191566 409.132935,56.321918 
	C417.299316,56.321918 424.390442,56.158749 431.461304,56.464249 
	C432.820374,56.522972 434.481720,58.173447 435.353363,59.512779 
	C440.500916,67.422043 445.456421,75.456299 450.844757,84.034668 
	C456.200989,75.506721 461.296326,67.620567 466.122070,59.572758 
	C467.567749,57.161900 469.047089,56.049377 471.976898,56.167030 
	C478.230652,56.418179 484.501465,56.243866 491.868958,56.243866 
	C487.782410,62.480038 484.188324,67.967148 480.591766,73.452644 
	C475.483429,81.243927 470.245483,88.955879 465.386932,96.899910 
	C464.556152,98.258331 464.632751,101.050255 465.493958,102.426773 
	C472.729950,113.992455 480.246735,125.382454 487.876740,137.134583 
z"/>
<path fill="#F4F4F8" opacity="1.000000" stroke="none" 
	d="
M64.926620,36.059147 
	C64.878677,65.979347 64.878677,95.409294 64.878677,125.146957 
	C83.179794,125.146957 100.943245,125.146957 119.117821,125.146957 
	C119.117821,131.825577 119.117821,138.206039 119.117821,144.933777 
	C93.600456,144.933777 68.206299,144.933777 42.447586,144.933777 
	C42.447586,105.915024 42.447586,66.876205 42.447586,27.474197 
	C49.675659,27.474197 56.911278,27.474197 64.974556,27.474197 
	C64.974556,30.081169 64.974556,32.825031 64.926620,36.059147 
z"/>
<path fill="#F3F4F6" opacity="1.000000" stroke="none" 
	d="
M374.104370,82.998169 
	C374.104340,74.021767 374.104340,65.545593 374.104340,56.639755 
	C381.238800,56.639755 388.265717,56.639755 395.603546,56.639755 
	C395.603546,85.894257 395.603546,115.113434 395.603546,144.764923 
	C388.564423,144.764923 381.548645,144.764923 374.104370,144.764923 
	C374.104370,124.337433 374.104370,103.917915 374.104370,82.998169 
z"/>
<path fill="#4A2D72" opacity="1.000000" stroke="none" 
	d="
M554.799622,15.397619 
	C555.094666,26.230597 555.037048,37.146500 554.980103,48.999660 
	C554.976746,79.893265 554.936584,109.849709 555.013306,139.805847 
	C555.023132,143.636261 553.249268,147.374069 556.619263,151.328674 
	C559.842896,155.111465 562.682312,157.017685 567.270020,154.857468 
	C569.200317,153.948532 571.080078,152.932251 573.287903,151.823853 
	C574.990967,151.096008 576.389038,150.509064 577.787048,149.922104 
	C573.677368,154.546829 568.386536,157.083557 562.380981,157.714050 
	C557.055237,158.273148 552.224976,153.078735 552.180664,147.142715 
	C552.096191,135.821991 552.147339,124.500252 552.146667,113.178932 
	C552.144897,83.210724 552.088745,53.242218 552.245178,23.274826 
	C552.258789,20.672966 553.679688,18.078463 554.799622,15.397619 
z"/>
<path fill="#603A8F" opacity="1.000000" stroke="none" 
	d="
M578.100342,149.832092 
	C576.389038,150.509064 574.990967,151.096008 573.103394,151.568695 
	C571.700806,149.793594 571.200378,147.499100 569.799744,146.586807 
	C564.967285,143.439316 563.455872,138.378082 566.410645,133.417664 
	C568.256042,130.319519 571.912354,130.019043 574.276245,132.941772 
	C575.997131,135.069397 577.434326,137.426437 578.887817,139.522324 
	C585.417969,134.784515 592.698242,134.727524 599.896118,135.326996 
	C598.450256,136.967453 597.166809,138.321533 595.883423,139.675613 
	C595.883423,139.675613 595.799744,139.846115 595.599426,139.952667 
	C595.245178,140.155502 595.122070,140.281845 595.029846,140.438217 
	C594.811462,140.521790 594.593079,140.605377 593.680908,140.803345 
	C590.960266,142.209808 588.933350,143.501892 586.906433,144.793976 
	C586.906433,144.793991 586.901245,144.886642 586.501709,144.904053 
	C585.056396,145.588470 584.010620,146.255478 582.964844,146.922470 
	C582.676392,147.189697 582.387939,147.456940 581.733521,147.886887 
	C581.367493,148.049606 581.073425,148.341324 581.073425,148.341324 
	C580.856201,148.453613 580.639038,148.565887 579.938721,148.874847 
	C579.268066,149.174805 579.123840,149.320938 579.023010,149.509933 
	C578.819885,149.587326 578.616760,149.664719 578.100342,149.832092 
z"/>
<path fill="#4A2D72" opacity="1.000000" stroke="none" 
	d="
M676.252197,93.638245 
	C676.834167,92.233826 677.804016,90.933914 678.673767,89.570168 
	C681.309937,85.437141 680.434387,80.590302 676.400879,76.882721 
	C674.977051,75.573952 673.514526,74.307228 671.991699,72.711800 
	C678.409546,72.969345 680.837708,77.412994 681.713440,83.040131 
	C682.429138,87.638458 681.367737,91.629112 676.252197,93.638245 
z"/>
<path fill="#4A2D72" opacity="1.000000" stroke="none" 
	d="
M572.945801,15.640538 
	C567.803650,14.422955 562.785156,11.177352 556.630859,14.082047 
	C559.570862,10.722656 565.392822,9.889721 569.116272,12.361507 
	C570.434082,13.236316 571.619202,14.311085 572.945801,15.640538 
z"/>
<path fill="#4A2D72" opacity="1.000000" stroke="none" 
	d="
M596.241760,139.715088 
	C597.166809,138.321533 598.450256,136.967453 600.241211,135.317307 
	C601.830872,134.656265 602.912964,134.291290 603.995117,133.926300 
	C606.032471,132.931015 608.069824,131.935730 610.465332,130.927200 
	C606.082336,133.860825 601.341248,136.807678 596.241760,139.715088 
z"/>
<path fill="#4A2D72" opacity="1.000000" stroke="none" 
	d="
M660.645752,65.815262 
	C656.215759,63.681805 651.636963,61.256207 646.991150,58.494331 
	C651.448364,60.613075 655.972717,63.068100 660.645752,65.815262 
z"/>
<path fill="#4A2D72" opacity="1.000000" stroke="none" 
	d="
M616.776123,40.735577 
	C612.503662,39.838139 607.706726,39.377872 605.010193,34.467937 
	C608.837097,36.231499 612.743408,38.325935 616.776123,40.735577 
z"/>
<path fill="#4A2D72" opacity="1.000000" stroke="none" 
	d="
M670.709595,71.782364 
	C665.766418,75.120880 664.221191,70.742607 661.958984,67.461945 
	C664.806641,68.571609 667.677307,70.031563 670.709595,71.782364 
z"/>
<path fill="#4A2D72" opacity="1.000000" stroke="none" 
	d="
M620.288330,125.850433 
	C623.651978,123.551834 627.377014,121.246979 631.474915,118.928162 
	C628.115112,121.224190 624.382446,123.534187 620.288330,125.850433 
z"/>
<path fill="#4A2D72" opacity="1.000000" stroke="none" 
	d="
M602.788147,32.731182 
	C599.640015,31.294943 596.364197,29.546188 593.008667,27.469379 
	C596.172729,28.900440 599.416626,30.659552 602.788147,32.731182 
z"/>
<path fill="#4A2D72" opacity="1.000000" stroke="none" 
	d="
M658.281433,103.826492 
	C660.630981,102.209496 663.337463,100.574341 666.409546,98.939980 
	C664.062805,100.563293 661.350647,102.185822 658.281433,103.826492 
z"/>
<path fill="#4A2D72" opacity="1.000000" stroke="none" 
	d="
M639.272095,114.825050 
	C640.974182,113.530800 643.030212,112.235069 645.440918,110.914612 
	C643.739075,112.201126 641.682556,113.512344 639.272095,114.825050 
z"/>
<path fill="#4A2D72" opacity="1.000000" stroke="none" 
	d="
M587.258545,144.798752 
	C588.933350,143.501892 590.960266,142.209808 593.341309,140.891083 
	C591.667114,142.177490 589.638916,143.490509 587.258545,144.798752 
z"/>
<path fill="#4A2D72" opacity="1.000000" stroke="none" 
	d="
M640.833801,54.710373 
	C639.315552,54.290779 637.660950,53.565228 635.980347,52.458202 
	C637.535339,52.852627 639.116394,53.628521 640.833801,54.710373 
z"/>
<path fill="#4A2D72" opacity="1.000000" stroke="none" 
	d="
M646.251587,110.805389 
	C647.316162,109.845451 648.721863,108.897202 650.473267,107.931175 
	C649.410217,108.881287 648.001404,109.849182 646.251587,110.805389 
z"/>
<path fill="#4A2D72" opacity="1.000000" stroke="none" 
	d="
M632.694336,49.784653 
	C631.200317,49.430119 629.594788,48.776920 627.938477,47.775757 
	C629.452820,48.113861 631.017822,48.799927 632.694336,49.784653 
z"/>
<path fill="#4A2D72" opacity="1.000000" stroke="none" 
	d="
M654.310974,105.942169 
	C655.029480,105.285034 656.077515,104.610809 657.484070,103.921173 
	C656.775208,104.578865 655.707886,105.251968 654.310974,105.942169 
z"/>
<path fill="#4A2D72" opacity="1.000000" stroke="none" 
	d="
M583.295654,146.904739 
	C584.010620,146.255478 585.056396,145.588470 586.455322,144.906036 
	C585.747864,145.556076 584.687134,146.221527 583.295654,146.904739 
z"/>
<path fill="#4A2D72" opacity="1.000000" stroke="none" 
	d="
M590.781128,25.759350 
	C589.973816,25.649637 589.030823,25.254827 587.998779,24.546932 
	C588.821655,24.647314 589.733582,25.060785 590.781128,25.759350 
z"/>
<path fill="#4A2D72" opacity="1.000000" stroke="none" 
	d="
M632.250732,118.853378 
	C632.696045,118.216515 633.462402,117.589317 634.564575,116.954651 
	C634.124207,117.585808 633.348083,118.224434 632.250732,118.853378 
z"/>
<path fill="#4A2D72" opacity="1.000000" stroke="none" 
	d="
M576.834351,17.726900 
	C576.023682,17.651707 575.071960,17.289198 574.026917,16.617760 
	C574.853455,16.685749 575.773376,17.062668 576.834351,17.726900 
z"/>
<path fill="#4A2D72" opacity="1.000000" stroke="none" 
	d="
M672.231445,95.811310 
	C672.685425,95.190338 673.457214,94.579086 674.561646,93.956703 
	C674.112549,94.570724 673.330872,95.195877 672.231445,95.811310 
z"/>
<path fill="#4A2D72" opacity="1.000000" stroke="none" 
	d="
M580.663818,19.853958 
	C580.276428,19.942404 579.782349,19.768736 579.124023,19.385998 
	C579.492188,19.315231 580.024658,19.453537 580.663818,19.853958 
z"/>
<path fill="#4A2D72" opacity="1.000000" stroke="none" 
	d="
M636.203003,116.589661 
	C636.118835,116.361092 636.282776,116.198097 636.652344,116.012047 
	C636.822266,116.254715 636.686646,116.476799 636.203003,116.589661 
z"/>
<path fill="#4A2D72" opacity="1.000000" stroke="none" 
	d="
M652.212646,107.529510 
	C652.136292,107.304878 652.285522,107.163765 652.616882,107.004547 
	C652.792908,107.242729 652.672668,107.451591 652.212646,107.529510 
z"/>
<path fill="#4A2D72" opacity="1.000000" stroke="none" 
	d="
M638.211182,115.535263 
	C638.138367,115.308868 638.298889,115.161438 638.650024,114.992622 
	C638.814331,115.232780 638.682251,115.447105 638.211182,115.535263 
z"/>
<path fill="#4A2D72" opacity="1.000000" stroke="none" 
	d="
M578.784363,18.852833 
	C578.589294,18.985214 578.381165,18.854879 578.099609,18.521065 
	C578.315247,18.259356 578.563599,18.350199 578.784363,18.852833 
z"/>
<path fill="#4A2D72" opacity="1.000000" stroke="none" 
	d="
M671.203125,96.557892 
	C671.120911,96.336128 671.276428,96.181076 671.623413,95.998398 
	C671.800537,96.234573 671.675903,96.452515 671.203125,96.557892 
z"/>
<path fill="#4A2D72" opacity="1.000000" stroke="none" 
	d="
M619.212280,126.562881 
	C619.138000,126.328117 619.307556,126.173439 619.679688,125.999741 
	C619.840393,126.247620 619.698364,126.468369 619.212280,126.562881 
z"/>
<path fill="#4A2D72" opacity="1.000000" stroke="none" 
	d="
M617.198364,127.524002 
	C617.120300,127.315147 617.264465,127.170593 617.584351,126.997650 
	C617.761475,127.222198 617.648315,127.428551 617.198364,127.524002 
z"/>
<path fill="#4A2D72" opacity="1.000000" stroke="none" 
	d="
M615.208252,128.615021 
	C615.123718,128.375885 615.298340,128.206284 615.693237,128.020172 
	C615.854065,128.271286 615.705322,128.498230 615.208252,128.615021 
z"/>
<path fill="#4A2D72" opacity="1.000000" stroke="none" 
	d="
M612.226807,130.523514 
	C612.156860,130.288788 612.313049,130.151459 612.657715,130.006439 
	C612.818787,130.251938 612.687744,130.459320 612.226807,130.523514 
z"/>
<path fill="#4A2D72" opacity="1.000000" stroke="none" 
	d="
M595.202271,140.489487 
	C595.122070,140.281845 595.245178,140.155502 595.516479,139.998962 
	C595.730042,140.218323 595.643677,140.419006 595.202271,140.489487 
z"/>
<path fill="#4A2D72" opacity="1.000000" stroke="none" 
	d="
M581.214111,148.410614 
	C581.073425,148.341324 581.367493,148.049606 581.460083,148.005585 
	C581.668701,148.204437 581.602722,148.377213 581.214111,148.410614 
z"/>
<path fill="#4A2D72" opacity="1.000000" stroke="none" 
	d="
M579.211304,149.549805 
	C579.123840,149.320938 579.268066,149.174805 579.599487,149.014038 
	C579.789795,149.255280 579.675293,149.466324 579.211304,149.549805 
z"/>
<path fill="#4A2D72" opacity="1.000000" stroke="none" 
	d="
M555.858765,14.293039 
	C555.970886,14.491908 555.825806,14.690078 555.486816,14.962109 
	C555.252075,14.742262 555.354980,14.494386 555.858765,14.293039 
z"/>
<path fill="#4A2D72" opacity="1.000000" stroke="none" 
	d="
M583.790405,21.850666 
	C583.608582,21.992495 583.400391,21.878454 583.111877,21.570026 
	C583.308411,21.294138 583.552612,21.367189 583.790405,21.850666 
z"/>
<path fill="#4A2D72" opacity="1.000000" stroke="none" 
	d="
M623.805237,44.842697 
	C623.620667,44.989826 623.407776,44.875652 623.113831,44.561195 
	C623.312866,44.279465 623.560913,44.352955 623.805237,44.842697 
z"/>
<path fill="#4A2D72" opacity="1.000000" stroke="none" 
	d="
M625.618347,45.874664 
	C625.451294,45.984497 625.302612,45.887550 625.104370,45.643723 
	C625.278870,45.405930 625.472839,45.462944 625.618347,45.874664 
z"/>
<path fill="#4A2D72" opacity="1.000000" stroke="none" 
	d="
M633.834595,50.814625 
	C633.627258,50.955860 633.382751,50.807270 633.069946,50.400963 
	C633.296082,50.189556 633.561279,50.316742 633.834595,50.814625 
z"/>
<path fill="#4A2D72" opacity="1.000000" stroke="none" 
	d="
M635.844666,51.832153 
	C635.658020,51.982723 635.430908,51.863930 635.117676,51.531090 
	C635.322327,51.254173 635.579895,51.336090 635.844666,51.832153 
z"/>
<path fill="#4A2D72" opacity="1.000000" stroke="none" 
	d="
M619.828003,42.819298 
	C619.628540,42.964050 619.386047,42.824078 619.064575,42.438404 
	C619.281006,42.213470 619.547485,42.327431 619.828003,42.819298 
z"/>
<path fill="#4A2D72" opacity="1.000000" stroke="none" 
	d="
M618.690796,41.881519 
	C618.519043,41.999134 618.350891,41.893421 618.114807,41.635445 
	C618.298584,41.361958 618.514404,41.420296 618.690796,41.881519 
z"/>
<path fill="#4A2D72" opacity="1.000000" stroke="none" 
	d="
M642.824402,55.827957 
	C642.627563,55.975719 642.406433,55.849628 642.106567,55.508057 
	C642.321350,55.231544 642.578735,55.318718 642.824402,55.827957 
z"/>
<path fill="#4A2D72" opacity="1.000000" stroke="none" 
	d="
M604.795532,33.857933 
	C604.617065,33.994503 604.409119,33.879780 604.117920,33.576012 
	C604.313721,33.300934 604.557495,33.374157 604.795532,33.857933 
z"/>
<path fill="#4A2D72" opacity="1.000000" stroke="none" 
	d="
M644.786377,56.849545 
	C644.603149,56.988781 644.397888,56.873535 644.111633,56.569538 
	C644.309998,56.286148 644.554626,56.357571 644.786377,56.849545 
z"/>
<path fill="#4A2D72" opacity="1.000000" stroke="none" 
	d="
M592.787231,26.862850 
	C592.608704,26.997152 592.401367,26.880987 592.112793,26.573841 
	C592.308716,26.308891 592.550964,26.385399 592.787231,26.862850 
z"/>
<path fill="#4A2D72" opacity="1.000000" stroke="none" 
	d="
M646.768677,57.871574 
	C646.599609,58.008007 646.405151,57.905056 646.128418,57.631863 
	C646.308228,57.343502 646.540588,57.400360 646.768677,57.871574 
z"/>
<path fill="#4A2D72" opacity="1.000000" stroke="none" 
	d="
M661.812744,66.825645 
	C661.596863,66.959793 661.360962,66.800964 661.057617,66.391296 
	C661.291321,66.176323 661.558838,66.307060 661.812744,66.825645 
z"/>
<path fill="#4A2D72" opacity="1.000000" stroke="none" 
	d="
M585.701294,22.886719 
	C585.532043,23.004162 585.353882,22.894537 585.104126,22.621807 
	C585.287048,22.371340 585.507019,22.438324 585.701294,22.886719 
z"/>
<path fill="#4A2D72" opacity="1.000000" stroke="none" 
	d="
M581.813110,20.818287 
	C581.602478,20.956966 581.365234,20.805496 581.054932,20.407654 
	C581.282471,20.184935 581.550720,20.307222 581.813110,20.818287 
z"/>
<path fill="#4A2D72" opacity="1.000000" stroke="none" 
	d="
M621.812866,43.834991 
	C621.619873,43.980305 621.401306,43.856308 621.105713,43.518539 
	C621.316040,43.251484 621.568909,43.338451 621.812866,43.834991 
z"/>
<path fill="#4A2D72" opacity="1.000000" stroke="none" 
	d="
M669.206055,97.595871 
	C669.122620,97.362350 669.291077,97.197716 669.671875,97.015518 
	C669.835022,97.261986 669.692993,97.484261 669.206055,97.595871 
z"/>
<path fill="#623A8E" opacity="1.000000" stroke="none" 
	d="
M603.997681,133.543304 
	C602.912964,134.291290 601.830872,134.656265 600.403625,135.030945 
	C592.698242,134.727524 585.417969,134.784515 578.887817,139.522324 
	C577.434326,137.426437 575.997131,135.069397 574.276245,132.941772 
	C571.912354,130.019043 568.256042,130.319519 566.410645,133.417664 
	C563.455872,138.378082 564.967285,143.439316 569.799744,146.586807 
	C571.200378,147.499100 571.700806,149.793594 572.798340,151.709595 
	C571.080078,152.932251 569.200317,153.948532 567.270020,154.857468 
	C562.682312,157.017685 559.842896,155.111465 556.619263,151.328674 
	C553.249268,147.374069 555.023132,143.636261 555.013306,139.805847 
	C554.936584,109.849709 554.976746,79.893265 554.984375,49.468277 
	C555.658447,47.541889 556.809265,46.119675 556.920227,44.620510 
	C557.545776,36.166779 557.865967,27.690536 558.476440,19.235399 
	C558.531860,18.467234 559.866089,17.243814 560.673584,17.187073 
	C562.582947,17.052895 564.628906,17.234907 566.396912,17.890099 
	C566.825317,18.048857 566.981812,21.192322 566.256592,21.845461 
	C561.773865,25.882557 562.889465,30.097322 564.625732,34.981735 
	C565.628357,37.802116 565.030396,41.227821 564.975891,44.378036 
	C564.912781,48.030510 566.373718,49.928646 570.221069,50.038609 
	C574.512390,50.161266 576.793274,52.895920 577.034973,57.075489 
	C577.332275,62.215790 577.971924,67.336288 578.745605,73.149002 
	C579.029602,81.219368 579.031555,88.606087 579.033508,95.992798 
	C578.355652,98.381981 577.677795,100.771179 576.629761,103.538010 
	C573.216492,104.103104 570.032104,103.788979 567.163696,104.596771 
	C562.967957,105.778389 563.199158,109.928787 563.167358,113.205864 
	C563.135132,116.536163 565.698486,118.367493 568.861877,117.892891 
	C572.634338,117.326897 576.292358,115.998238 580.000000,114.999992 
	C583.699402,115.333298 587.398865,115.666595 591.901184,115.993713 
	C593.469421,115.325012 594.234680,114.662498 595.000000,113.999985 
	C595.986389,113.918114 597.643555,114.155769 597.857788,113.706039 
	C600.706482,107.726631 607.416443,107.944763 612.024536,104.836906 
	C613.182495,104.055939 615.427185,104.535286 617.008118,104.997520 
	C617.369934,105.103317 617.007202,107.535492 617.057190,108.894081 
	C617.140503,111.157471 617.287720,113.418503 617.408081,115.680527 
	C618.077148,115.965050 618.746277,116.249580 619.415405,116.534103 
	C616.977966,118.679344 614.326416,120.629921 612.155579,123.017570 
	C609.242554,126.221581 606.701172,129.763474 603.997681,133.543304 
z"/>
<path fill="#010001" opacity="1.000000" stroke="none" 
	d="
M633.024963,82.817307 
	C633.088318,83.315460 633.151672,83.813622 632.938965,84.809715 
	C632.470886,85.886147 632.278931,86.464645 632.086975,87.043144 
	C632.086975,87.043144 632.018066,87.015579 631.791992,87.121567 
	C631.273438,87.413551 631.101196,87.677948 631.049316,88.020760 
	C631.049316,88.020760 631.000122,87.999611 630.682556,88.047974 
	C629.300293,88.757950 628.235596,89.419563 627.170898,90.081177 
	C626.967346,90.152870 626.763733,90.224571 626.071899,90.366676 
	C625.311768,90.558098 625.178711,90.767509 625.184387,91.065323 
	C625.184387,91.065323 625.087708,91.070557 624.760437,91.115158 
	C623.646118,91.788872 622.859131,92.417984 622.072083,93.047089 
	C622.072083,93.047089 622.011963,93.001358 621.684082,93.050713 
	C619.948608,94.088417 618.540955,95.076767 617.133301,96.065109 
	C616.934509,96.135399 616.735779,96.205711 616.068848,96.369408 
	C615.339844,96.578018 615.211975,96.778328 615.216980,97.063744 
	C615.007202,97.124641 614.797363,97.185547 614.094238,97.337090 
	C613.331116,97.555153 613.211914,97.767372 613.243225,98.064377 
	C613.017700,98.152893 612.792114,98.241417 612.086792,98.432587 
	C611.360779,98.634544 611.248596,98.816750 611.270386,99.081833 
	C611.270386,99.081833 611.144592,99.097725 610.802368,99.144363 
	C609.692932,99.819344 608.925781,100.447693 608.158630,101.076050 
	C607.962524,101.121262 607.766357,101.166489 607.074890,101.284424 
	C606.291199,101.502792 606.165527,101.736206 606.202637,102.057350 
	C605.988220,102.146431 605.773865,102.235512 605.082886,102.415527 
	C604.350159,102.613586 604.237793,102.805389 604.269409,103.081871 
	C604.269409,103.081871 604.143188,103.102386 603.801147,103.146561 
	C602.677551,103.812836 601.895996,104.434937 601.114441,105.057037 
	C600.925964,105.113068 600.737488,105.169113 600.060669,105.294624 
	C599.283020,105.509163 599.150391,105.743134 599.174438,106.066017 
	C599.174438,106.066017 599.074036,106.074173 598.833069,106.170486 
	C598.299927,106.435829 598.113647,106.684288 598.033325,107.012184 
	C597.857788,107.061539 597.682190,107.110886 597.039062,107.257706 
	C596.293457,107.497528 596.135071,107.723824 596.096436,108.034050 
	C595.909241,108.086128 595.721985,108.138206 595.059814,108.286636 
	C594.309937,108.520905 594.170776,108.743759 594.167358,109.051544 
	C592.993591,109.699341 591.819824,110.347137 590.052551,111.101021 
	C588.985168,111.516266 588.511230,111.825439 588.037354,112.134613 
	C586.972900,112.106194 585.908447,112.077774 584.299561,111.727356 
	C582.833923,110.276772 581.912842,109.148193 580.991699,108.019615 
	C580.966919,105.306313 580.942078,102.593002 581.178711,99.121208 
	C581.565979,85.213707 581.691833,72.064697 581.817749,58.915688 
	C581.817749,58.915688 581.921021,58.896778 582.136597,58.790462 
	C582.630981,58.508835 582.744263,58.258598 582.692078,57.933437 
	C582.692078,57.933437 582.858154,57.872227 583.126587,57.785751 
	C583.690552,57.544430 583.832458,57.300190 583.820679,56.966545 
	C584.025452,56.902981 584.230164,56.839413 585.110229,56.765419 
	C587.979065,57.726917 590.218445,58.608047 592.357178,59.688442 
	C597.872375,62.474636 603.343079,65.348946 608.831604,68.188049 
	C608.831604,68.188057 609.015442,68.047798 609.014404,68.436401 
	C612.709839,70.783646 616.406433,72.742287 620.102966,74.700935 
	C620.595032,75.068222 621.087097,75.435501 621.935608,76.064529 
	C622.292053,76.326271 622.591431,76.577591 622.591431,76.577591 
	C622.591431,76.577591 622.975220,76.503189 622.975220,76.503189 
	C623.804443,76.933983 624.633606,77.364777 625.858521,78.079254 
	C626.254211,78.362938 626.574402,78.637199 626.574402,78.637199 
	C626.574402,78.637199 626.993652,78.592491 626.993652,78.592491 
	C627.178223,78.660278 627.362793,78.728058 627.893372,79.087349 
	C628.239380,79.378853 628.567078,79.664742 628.567078,79.664742 
	C628.567078,79.664742 629.001892,79.656555 629.001892,79.656563 
	C629.538574,80.004478 630.075256,80.352394 630.942749,81.051010 
	C631.438721,81.687553 631.685974,81.818764 632.015320,81.795341 
	C632.015320,81.795341 632.070740,81.928978 632.176819,82.172775 
	C632.450745,82.697182 632.698120,82.830757 633.024963,82.817307 
z"/>
<path fill="#603A8F" opacity="1.000000" stroke="none" 
	d="
M579.952698,114.628372 
	C576.292358,115.998238 572.634338,117.326897 568.861877,117.892891 
	C565.698486,118.367493 563.135132,116.536163 563.167358,113.205864 
	C563.199158,109.928787 562.967957,105.778389 567.163696,104.596771 
	C570.032104,103.788979 573.216492,104.103104 576.629822,103.957809 
	C577.968506,107.418907 578.936951,110.837830 579.952698,114.628372 
z"/>
<path fill="#4C2E75" opacity="1.000000" stroke="none" 
	d="
M581.473877,59.020920 
	C581.691833,72.064697 581.565979,85.213707 581.163208,98.669289 
	C580.426514,98.106567 579.966797,97.237274 579.270264,96.180389 
	C579.031555,88.606087 579.029602,81.219368 579.029663,73.419312 
	C579.236877,71.129425 579.372681,69.242065 579.663696,67.378937 
	C580.094666,64.618988 580.635742,61.876225 581.473877,59.020920 
z"/>
<path fill="#4C2E75" opacity="1.000000" stroke="none" 
	d="
M608.839722,67.822601 
	C603.343079,65.348946 597.872375,62.474636 592.357178,59.688442 
	C590.218445,58.608047 587.979065,57.726917 585.409851,56.648678 
	C586.187805,56.261894 587.673035,55.374859 588.443420,55.795834 
	C595.316650,59.551708 602.063660,63.538429 608.839722,67.822601 
z"/>
<path fill="#4C2E75" opacity="1.000000" stroke="none" 
	d="
M620.006836,74.389343 
	C616.406433,72.742287 612.709839,70.783646 608.919556,68.500267 
	C612.520813,70.142937 616.215759,72.110352 620.006836,74.389343 
z"/>
<path fill="#4C2E75" opacity="1.000000" stroke="none" 
	d="
M617.487305,96.051430 
	C618.540955,95.076767 619.948608,94.088417 621.697632,93.085999 
	C620.639771,94.060532 619.240601,95.049133 617.487305,96.051430 
z"/>
<path fill="#603A8F" opacity="1.000000" stroke="none" 
	d="
M594.807312,113.765602 
	C594.234680,114.662498 593.469421,115.325012 592.352051,115.993607 
	C592.871521,115.176872 593.743103,114.354050 594.807312,113.765602 
z"/>
<path fill="#4C2E75" opacity="1.000000" stroke="none" 
	d="
M580.985596,108.407814 
	C581.912842,109.148193 582.833923,110.276772 583.901978,111.688568 
	C583.025757,110.913193 582.002563,109.854607 580.985596,108.407814 
z"/>
<path fill="#4C2E75" opacity="1.000000" stroke="none" 
	d="
M627.528992,90.067642 
	C628.235596,89.419563 629.300293,88.757950 630.695068,88.071587 
	C629.979187,88.715927 628.933105,89.385017 627.528992,90.067642 
z"/>
<path fill="#4C2E75" opacity="1.000000" stroke="none" 
	d="
M622.410583,93.040993 
	C622.859131,92.417984 623.646118,91.788872 624.755615,91.163322 
	C624.301758,91.789558 623.525391,92.412224 622.410583,93.040993 
z"/>
<path fill="#4C2E75" opacity="1.000000" stroke="none" 
	d="
M608.486450,101.061249 
	C608.925781,100.447693 609.692932,99.819344 610.775635,99.201874 
	C610.332275,99.823982 609.573303,100.435211 608.486450,101.061249 
z"/>
<path fill="#4C2E75" opacity="1.000000" stroke="none" 
	d="
M601.446289,105.047928 
	C601.895996,104.434937 602.677551,103.812836 603.777588,103.205978 
	C603.323486,103.827087 602.550781,104.432953 601.446289,105.047928 
z"/>
<path fill="#4C2E75" opacity="1.000000" stroke="none" 
	d="
M588.199158,112.334503 
	C588.511230,111.825439 588.985168,111.516266 589.762451,111.273643 
	C589.497559,111.738258 588.929260,112.136330 588.199158,112.334503 
z"/>
<path fill="#4C2E75" opacity="1.000000" stroke="none" 
	d="
M632.360535,87.007965 
	C632.278931,86.464645 632.470886,85.886147 632.953247,85.186684 
	C633.040466,85.701408 632.837280,86.337097 632.360535,87.007965 
z"/>
<path fill="#4C2E75" opacity="1.000000" stroke="none" 
	d="
M596.277832,107.967972 
	C596.135071,107.723824 596.293457,107.497528 596.785278,107.359833 
	C596.871948,107.596764 596.692078,107.775894 596.277832,107.967972 
z"/>
<path fill="#4C2E75" opacity="1.000000" stroke="none" 
	d="
M599.335205,105.991211 
	C599.150391,105.743134 599.283020,105.509163 599.782471,105.392578 
	C599.869568,105.628738 599.704041,105.793846 599.335205,105.991211 
z"/>
<path fill="#4C2E75" opacity="1.000000" stroke="none" 
	d="
M598.246094,106.929230 
	C598.113647,106.684288 598.299927,106.435829 598.825500,106.220291 
	C598.928711,106.460258 598.728760,106.684425 598.246094,106.929230 
z"/>
<path fill="#4C2E75" opacity="1.000000" stroke="none" 
	d="
M594.332397,108.982162 
	C594.170776,108.743759 594.309937,108.520905 594.789856,108.396530 
	C594.875122,108.623268 594.709351,108.790840 594.332397,108.982162 
z"/>
<path fill="#4C2E75" opacity="1.000000" stroke="none" 
	d="
M583.642212,57.050312 
	C583.832458,57.300190 583.690552,57.544430 583.173462,57.710693 
	C583.069580,57.480026 583.240234,57.284012 583.642212,57.050312 
z"/>
<path fill="#4C2E75" opacity="1.000000" stroke="none" 
	d="
M582.532471,58.044899 
	C582.744263,58.258598 582.630981,58.508835 582.141541,58.738182 
	C582.027710,58.545177 582.175049,58.333229 582.532471,58.044899 
z"/>
<path fill="#4C2E75" opacity="1.000000" stroke="none" 
	d="
M622.873291,76.379089 
	C622.975220,76.503189 622.591431,76.577591 622.591431,76.577591 
	C622.591431,76.577591 622.292053,76.326271 622.252930,76.133560 
	C622.423218,76.003677 622.609070,76.108391 622.873291,76.379089 
z"/>
<path fill="#4C2E75" opacity="1.000000" stroke="none" 
	d="
M626.883850,78.449173 
	C626.993652,78.592491 626.574402,78.637199 626.574402,78.637199 
	C626.574402,78.637199 626.254211,78.362938 626.201782,78.157852 
	C626.387878,78.016853 626.596130,78.134544 626.883850,78.449173 
z"/>
<path fill="#4C2E75" opacity="1.000000" stroke="none" 
	d="
M628.889343,79.499786 
	C629.001892,79.656555 628.567078,79.664742 628.567078,79.664742 
	C628.567078,79.664742 628.239380,79.378853 628.176514,79.169998 
	C628.370605,79.026047 628.591675,79.153343 628.889343,79.499786 
z"/>
<path fill="#4C2E75" opacity="1.000000" stroke="none" 
	d="
M631.924316,81.616463 
	C631.685974,81.818764 631.438721,81.687553 631.233032,81.185410 
	C631.453857,81.059906 631.667419,81.216064 631.924316,81.616463 
z"/>
<path fill="#4C2E75" opacity="1.000000" stroke="none" 
	d="
M632.934814,82.636795 
	C632.698120,82.830757 632.450745,82.697182 632.243530,82.200729 
	C632.468445,82.073090 632.681946,82.230217 632.934814,82.636795 
z"/>
<path fill="#4C2E75" opacity="1.000000" stroke="none" 
	d="
M631.262085,87.923172 
	C631.101196,87.677948 631.273438,87.413551 631.798462,87.158127 
	C631.926270,87.395195 631.740906,87.640831 631.262085,87.923172 
z"/>
<path fill="#4C2E75" opacity="1.000000" stroke="none" 
	d="
M625.333008,91.006538 
	C625.178711,90.767509 625.311768,90.558098 625.771729,90.488052 
	C625.834229,90.714722 625.674805,90.850967 625.333008,91.006538 
z"/>
<path fill="#4C2E75" opacity="1.000000" stroke="none" 
	d="
M615.360901,97.005920 
	C615.211975,96.778328 615.339844,96.578018 615.782837,96.504425 
	C615.843628,96.716736 615.690247,96.850746 615.360901,97.005920 
z"/>
<path fill="#4C2E75" opacity="1.000000" stroke="none" 
	d="
M613.387207,97.997902 
	C613.211914,97.767372 613.331116,97.555153 613.791016,97.461365 
	C613.866760,97.677238 613.716736,97.822708 613.387207,97.997902 
z"/>
<path fill="#4C2E75" opacity="1.000000" stroke="none" 
	d="
M611.391479,99.030731 
	C611.248596,98.816750 611.360779,98.634544 611.764038,98.599731 
	C611.804077,98.794106 611.667908,98.899239 611.391479,99.030731 
z"/>
<path fill="#4C2E75" opacity="1.000000" stroke="none" 
	d="
M606.360901,101.981606 
	C606.165527,101.736206 606.291199,101.502792 606.788452,101.379883 
	C606.881775,101.612068 606.722412,101.779808 606.360901,101.981606 
z"/>
<path fill="#4C2E75" opacity="1.000000" stroke="none" 
	d="
M604.393921,103.026596 
	C604.237793,102.805389 604.350159,102.613586 604.771362,102.571014 
	C604.817566,102.773087 604.678284,102.885010 604.393921,103.026596 
z"/>
</svg>